<svg width="509" height="202" viewBox="0 0 509 202" fill="none" xmlns="http://www.w3.org/2000/svg">
<path d="M425.741 169.685L396.831 150.036L405.283 139.419V42.3572C405.283 38.8096 404.234 36.3262 402.136 34.9072C400.037 33.3463 397.49 32.1401 394.492 31.2887L435.408 3.61743V141.335L446.487 150.738L425.741 169.685ZM483.967 169.006L439.904 107.704L473.176 58.747C476.874 61.6191 477.912 62.5754 481.044 64.4941C483.592 66.0551 486.589 66.8356 490.036 66.8356C498.079 66.8356 502.072 63.7243 508.696 58.747C507.946 63.8556 506.522 68.7513 504.424 73.4341C502.476 77.975 499.628 81.8064 495.881 84.9283C492.135 87.9083 487.189 89.3983 481.044 89.3983C476.997 89.3983 473.475 88.7597 470.478 87.4825C467.48 86.0635 464.783 84.2897 462.385 82.1612L460.361 86.4183L507.26 152.141L483.967 169.006Z" fill="black"/>
<path d="M318.389 170.073L292.536 150.703L301.079 143.466V86.8466L289.367 74.2532L311.87 58.324L329.18 76.6296L353.909 58.324L382.011 81.2704V140.486L395.349 151.443L371.22 170.073L348.514 150.703L356.157 143.466V90.8909L339.971 77.6938L330.304 84.9309V143.466L339.971 151.555L318.389 170.073Z" fill="black"/>
<path d="M227.535 167.941C222.889 167.374 218.243 165.884 213.596 163.471C208.95 161.059 205.054 157.866 201.906 153.893C198.909 149.92 197.41 145.237 197.41 139.844C197.41 134.168 199.583 128.705 203.93 123.454C208.426 118.204 214.87 113.45 223.263 109.193C218.168 107.065 213.821 104.439 210.224 101.317C206.777 98.0537 205.054 93.9385 205.054 88.9718C205.054 84.289 206.552 80.5286 209.55 77.6905C212.547 74.8524 215.695 72.6529 218.992 71.092L243.721 58.7463L278.249 79.1621L278.342 139.419L289.133 149.636L268.45 167.941L251.365 151.551L227.535 167.941ZM211.348 87.6947C211.348 92.2356 213.522 95.9961 217.868 98.9761C222.364 101.956 227.61 104.368 233.605 106.213C239.749 107.916 245.295 109.335 250.241 110.47V90.4618L223.713 74.9234C220.416 76.6262 217.493 78.5419 214.945 80.6705C212.547 82.6571 211.348 84.9985 211.348 87.6947ZM224.612 120.474C224.612 124.59 225.362 128.918 226.86 133.459C228.509 137.858 230.832 141.689 233.829 144.953C236.977 148.075 240.873 149.636 245.519 149.636C247.618 149.636 249.191 149.423 250.241 148.997V116.643C246.644 115.934 242.822 115.153 238.775 114.302C234.878 113.308 231.057 112.102 227.31 110.683C226.561 111.818 225.886 113.237 225.287 114.94C224.837 116.643 224.612 118.488 224.612 120.474Z" fill="black"/>
<path d="M159.78 167.942L131.506 147.23L138.198 141.335V85.3541L132.247 81.268L148.989 57.6829L165.625 74.4985L181.136 57.6829C185.608 60.918 187.799 63.0042 193.726 63.0042C200.126 63.0042 204.137 61.6198 210.587 57.6829C209.687 66.4809 207.814 73.0085 204.966 77.2656C202.269 81.5227 199.346 84.2898 196.199 85.5669C193.051 86.8441 190.354 87.4826 188.106 87.4826C185.708 87.4826 182.635 86.8441 178.888 85.5669C175.291 84.2898 171.694 81.9484 168.097 78.5427V141.335L181.903 151.44L159.78 167.942Z" fill="black"/>
<path d="M27.8764 202C20.2329 202 13.6385 199.517 8.09316 194.55C2.69772 189.725 0 183.623 0 176.244C0 169.149 2.47291 163.544 7.41873 159.429C12.5144 155.314 18.5843 152.759 25.6283 151.766C29.6749 146.09 31.9979 139.208 32.5974 131.119C33.1969 123.031 33.4967 114.02 33.4967 104.086V88.9737H22.9306C18.5843 88.9737 15.1372 90.1798 12.5894 92.5922C10.0415 94.8627 9.21721 98.1974 10.1164 102.596C0.981299 102.596 1.27748 89.6021 3.59696 83.0137C5.99493 76.4861 9.96657 71.9452 15.5119 69.3909C18.3595 68.1138 21.282 67.2624 24.2795 66.8367C27.2769 66.2691 30.3493 65.7724 33.4967 65.3467V60.0253C33.4967 54.2072 34.9205 49.8792 37.7681 47.0411C40.7655 44.203 43.8379 41.3649 46.9853 38.5269C52.3807 33.5602 58.0759 28.8065 64.0708 24.2655C61.2232 24.9751 58.3756 25.3298 55.5281 25.3298C51.7812 25.3298 48.3341 24.8332 45.1868 23.8398C42.1893 22.7046 39.1169 21.6403 35.9696 20.647C32.8223 19.5118 29.3752 18.9442 25.6283 18.9442C16.0328 18.9442 14.1828 21.6225 4.4962 28.9484C6.44455 24.4075 9.14227 20.0084 12.5894 15.7513C16.1863 11.4942 20.5326 8.01757 25.6283 5.3214C30.8739 2.48332 36.7939 1.06428 43.3883 1.06428C49.2334 1.06428 54.8536 1.98665 60.2491 3.83141C65.6445 5.53425 71.2648 6.38568 77.1098 6.38568C81.1564 6.38568 84.8283 5.88902 88.1255 4.89569C91.5726 3.90237 94.5701 2.62523 97.1179 1.06428L96.8931 6.59854C95.3944 7.59186 93.8956 8.51424 92.3969 9.36566C90.8982 10.2171 89.3994 11.1395 87.9007 12.1328C86.7017 12.9842 85.4278 13.8356 84.0789 14.687C82.7301 15.5385 81.3812 16.3899 80.0323 17.2413C74.9366 20.9308 70.7402 25.4008 67.443 30.6512C64.1458 35.7598 62.4972 42.9259 62.4972 52.1496V82.1623V122.605C62.4972 128.565 62 131.955 58.5 135C52.7532 140 50.7888 141.864 44.644 145.553L73.5128 138.5V129.103V36.3983L117.126 0C122.372 3.4057 127.842 6.45663 133.537 9.1528C141.611 12.975 150.095 15.6372 158.704 18.1139L137.809 40.2297C131.814 38.6688 126.043 36.6112 120.498 34.0569C114.953 31.5026 109.857 28.6646 105.211 25.5427V64.4953H136.47L118.616 89.3994H105.211V119.838C105.211 119.838 103.637 121.753 100.49 125.585C97.4926 129.274 93.5959 133.957 88.7999 139.633C84.004 145.168 78.9832 150.773 73.7377 156.449C68.4921 162.125 63.6962 166.808 59.3498 170.497C56.802 172.626 53.28 174.4 48.7838 175.819C44.4374 177.238 40.0162 178.018 35.52 178.16H29.0005C26.003 178.16 23.4552 178.87 21.3569 180.289C19.2587 181.708 18.2096 183.623 18.2096 186.036C18.2096 191.461 24.339 198.636 28.3261 201.787C28.1762 201.929 28.0263 202 27.8764 202Z" fill="black"/>
</svg>
